<svg xmlns="http://www.w3.org/2000/svg" width="2732" height="2732" viewBox="0 0 2732 2732">
    
  <defs>
    <radialGradient id="bg" cx="50%" cy="38%" r="75%">
      <stop offset="0%" stop-color="#1b2a52"/>
      <stop offset="55%" stop-color="#0f1730"/>
      <stop offset="100%" stop-color="#070b16"/>
    </radialGradient>
    <linearGradient id="gem" x1="0" y1="0" x2="1" y2="1">
      <stop offset="0%" stop-color="#4fe3ff"/>
      <stop offset="50%" stop-color="#8a6bff"/>
      <stop offset="100%" stop-color="#ff5db1"/>
    </linearGradient>
    <linearGradient id="facet" x1="0" y1="0" x2="0" y2="1">
      <stop offset="0%" stop-color="#7fd6ff" stop-opacity="0.8"/>
      <stop offset="100%" stop-color="#6f3fd0" stop-opacity="0.3"/>
    </linearGradient>
    <filter id="glow" x="-60%" y="-60%" width="220%" height="220%">
      <feGaussianBlur stdDeviation="14" result="b"/>
      <feMerge><feMergeNode in="b"/><feMergeNode in="SourceGraphic"/></feMerge>
    </filter>
  </defs>
    <rect width="2732" height="2732" fill="#05080f"/>
    <rect width="2732" height="2732" fill="url(#bg)" opacity="0.9"/>
    
    <polygon points="1366.0,765.0 1744.6,983.5 1744.6,1420.6 1366.0,1639.2 987.4,1420.6 987.4,983.5" fill="url(#gem)" stroke="#bff3ff" stroke-width="21.856" filter="url(#glow)"/>
    <polygon points="1366.0,931.1 1600.7,1066.6 1600.7,1337.6 1366.0,1473.1 1131.3,1337.6 1131.3,1066.6" fill="#0a1430" opacity="0.55"/>
    <polygon points="1366.0,931.1 1600.7,1066.6 1600.7,1337.6 1366.0,1473.1 1131.3,1337.6 1131.3,1066.6" fill="url(#facet)" opacity="0.9"/>
    <circle cx="1366" cy="1202.08" r="69.9392" fill="#fff" opacity="0.9" filter="url(#glow)"/>
  
    <text x="1366" y="1803.12" text-anchor="middle"
      font-family="Arial, Helvetica, sans-serif" font-weight="800"
      font-size="169.384" fill="#eaf2ff" letter-spacing="10.928">BRAINROT HEIST</text>
    <text x="1366" y="1926.06" text-anchor="middle"
      font-family="Arial, Helvetica, sans-serif" font-weight="500"
      font-size="71.032" fill="#7fa6d8" letter-spacing="16.392">collect · fuse · compete</text>
  </svg>